ModelForces
version=1
nRows=4
nColumns=155
inDegrees=no

This file contains the forces exerted on a model during a simulation.

A force is a generalized force, meaning that it can be either a force (N) or a torque (Nm).

Units are S.I. units (second, meters, Newtons, ...)
Angles are in degrees.

endheader
time	glut_med1_r	glut_med2_r	glut_med3_r	glut_min1_r	glut_min2_r	glut_min3_r	semimem_r	semiten_r	bifemlh_r	bifemsh_r	sar_r	add_long_r	add_brev_r	add_mag1_r	add_mag2_r	add_mag3_r	tfl_r	pect_r	grac_r	glut_max1_r	glut_max2_r	glut_max3_r	iliacus_r	psoas_r	quad_fem_r	gem_r	peri_r	rect_fem_r	vas_med_r	vas_int_r	vas_lat_r	med_gas_r	lat_gas_r	soleus_r	tib_post_r	flex_dig_r	flex_hal_r	tib_ant_r	per_brev_r	per_long_r	per_tert_r	ext_dig_r	ext_hal_r	glut_med1_l	glut_med2_l	glut_med3_l	glut_min1_l	glut_min2_l	glut_min3_l	semimem_l	semiten_l	bifemlh_l	bifemsh_l	sar_l	add_long_l	add_brev_l	add_mag1_l	add_mag2_l	add_mag3_l	tfl_l	pect_l	grac_l	glut_max1_l	glut_max2_l	glut_max3_l	iliacus_l	psoas_l	quad_fem_l	gem_l	peri_l	rect_fem_l	vas_med_l	vas_int_l	vas_lat_l	med_gas_l	lat_gas_l	soleus_l	tib_post_l	flex_dig_l	flex_hal_l	tib_ant_l	per_brev_l	per_long_l	per_tert_l	ext_dig_l	ext_hal_l	ercspn_r	ercspn_l	intobl_r	intobl_l	extobl_r	extobl_l	femur_lat_meniscii_r.femur_lat_r.force.X	femur_lat_meniscii_r.femur_lat_r.force.Y	femur_lat_meniscii_r.femur_lat_r.force.Z	femur_lat_meniscii_r.femur_lat_r.torque.X	femur_lat_meniscii_r.femur_lat_r.torque.Y	femur_lat_meniscii_r.femur_lat_r.torque.Z	femur_lat_meniscii_r.meniscus_lat_r.force.X	femur_lat_meniscii_r.meniscus_lat_r.force.Y	femur_lat_meniscii_r.meniscus_lat_r.force.Z	femur_lat_meniscii_r.meniscus_lat_r.torque.X	femur_lat_meniscii_r.meniscus_lat_r.torque.Y	femur_lat_meniscii_r.meniscus_lat_r.torque.Z	femur_med_meniscii_r.femur_med_r.force.X	femur_med_meniscii_r.femur_med_r.force.Y	femur_med_meniscii_r.femur_med_r.force.Z	femur_med_meniscii_r.femur_med_r.torque.X	femur_med_meniscii_r.femur_med_r.torque.Y	femur_med_meniscii_r.femur_med_r.torque.Z	femur_med_meniscii_r.meniscus_med_r.force.X	femur_med_meniscii_r.meniscus_med_r.force.Y	femur_med_meniscii_r.meniscus_med_r.force.Z	femur_med_meniscii_r.meniscus_med_r.torque.X	femur_med_meniscii_r.meniscus_med_r.torque.Y	femur_med_meniscii_r.meniscus_med_r.torque.Z	femur_med_tibia_r.tibia_upper_r.force.X	femur_med_tibia_r.tibia_upper_r.force.Y	femur_med_tibia_r.tibia_upper_r.force.Z	femur_med_tibia_r.tibia_upper_r.torque.X	femur_med_tibia_r.tibia_upper_r.torque.Y	femur_med_tibia_r.tibia_upper_r.torque.Z	femur_med_tibia_r.femur_med_r.force.X	femur_med_tibia_r.femur_med_r.force.Y	femur_med_tibia_r.femur_med_r.force.Z	femur_med_tibia_r.femur_med_r.torque.X	femur_med_tibia_r.femur_med_r.torque.Y	femur_med_tibia_r.femur_med_r.torque.Z	femur_lat_tibia_r.tibia_upper_r.force.X	femur_lat_tibia_r.tibia_upper_r.force.Y	femur_lat_tibia_r.tibia_upper_r.force.Z	femur_lat_tibia_r.tibia_upper_r.torque.X	femur_lat_tibia_r.tibia_upper_r.torque.Y	femur_lat_tibia_r.tibia_upper_r.torque.Z	femur_lat_tibia_r.femur_lat_r.force.X	femur_lat_tibia_r.femur_lat_r.force.Y	femur_lat_tibia_r.femur_lat_r.force.Z	femur_lat_tibia_r.femur_lat_r.torque.X	femur_lat_tibia_r.femur_lat_r.torque.Y	femur_lat_tibia_r.femur_lat_r.torque.Z	aACL_R	pACL_R	aPCL_R	pPCL_R	aMCL_R	mMCL_R	pMCL_R	aLCL_R	mLCL_R	pLCL_R	aPCL_L	pPCL_L	aMCL_L	aLCL_L
      0.21018367	      9.69633166	      7.13741841	      7.66200321	      3.31695218	      3.89331241	      4.09951489	      0.00000000	    163.56611430	    181.64066977	    336.39018013	    122.03695629	      7.09058491	      5.15536785	      3.67148265	      3.10343907	      5.16285920	      3.35049809	      2.79682993	     92.39551458	      4.60633577	      7.00472155	      5.25046330	     25.32822078	     16.00127242	      4.54619332	      3.29097846	      5.56246805	    114.91637420	     39.96979050	     73.84372307	     55.45007328	      0.00000000	      0.00000000	      0.00000000	      0.00000000	      0.00000000	      0.00000000	     35.79617214	      1.25660549	      2.95859654	     22.73623509	     48.59345402	     11.76728623	      9.69633166	      7.13741841	      7.66200321	      3.31695218	      3.89331241	      4.09951489	     10.59690070	      5.23395590	     10.24067483	      9.04716327	      1.89390283	      7.09058491	      5.15536785	      3.67148265	      3.10343907	      5.16285920	      4.82490148	      2.79682993	      1.94997204	      4.60633577	      7.00472155	      5.25046330	     25.32822078	     16.00127242	      4.54619332	      3.29097846	      5.56246805	     14.17277768	      0.00000000	      0.00000000	      0.00000000	     19.30088550	      9.01556385	     42.89337855	     47.23705373	      4.15844098	      3.62155854	     11.10595971	      5.87566807	     15.80478068	      2.47517184	      7.86179429	      2.51829539	     31.21083363	     31.21083363	     11.45320530	     11.45320530	     29.01118763	     29.01118763	    132.47747687	     95.41859566	     12.62858231	     -7.25337159	      3.12353673	     52.39409362	   -132.47747687	    -95.41859566	    -12.62858231	      2.52520123	     -3.81890216	      2.45979691	      0.01067038	     -0.00153401	     -0.00781236	      0.00309149	     -0.00017530	      0.00425673	     -0.01067038	      0.00153401	      0.00781236	     -0.00001368	      0.00035923	     -0.00008907	   -846.58515616	   -362.77449725	    299.86239179	     -7.91219735	     20.69699583	      2.86690191	    846.58515616	    362.77449725	   -299.86239179	    127.16904333	    -14.79891618	    340.95997095	   -287.80760625	   -135.35753564	    -82.11849179	      4.38422461	    -10.10377361	      1.29471689	    287.80760625	    135.35753564	     82.11849179	    -36.41922561	      7.10709570	    115.92053733	     -2.02286104	      0.00000000	    978.30856458	    631.91063029	     28.52505786	     15.86070681	      0.00000000	      0.00000000	      0.00000000	      0.00000000	      0.00000000	      0.00000000	      0.00000001	      0.00000000
      0.21121839	      9.66738362	      7.11764035	      7.64050899	      3.30814737	      3.88372127	      4.08727882	      0.00000000	    163.64099634	    181.15919906	    334.95517683	    121.87025082	      7.07070508	      5.14181005	      3.66138016	      3.09468362	      5.14698250	      3.35694361	      2.78935472	     92.30991366	      4.59354550	      6.98522043	      5.23559713	     25.29203027	     15.96011334	      4.53385997	      3.28504576	      5.54646593	    137.81670213	     40.04897393	     74.25591869	     55.88390020	      0.00000000	      0.00000000	      0.00000000	      0.00000000	      0.00000000	      0.00000000	     35.82868271	      1.18389604	      2.84599974	     22.41678093	     48.15951320	     11.64353962	      9.66738362	      7.11764035	      7.64050899	      3.30814737	      3.88372127	      4.08727882	     10.61077066	      5.21842690	     10.20698600	      9.02259642	      1.88889893	      7.07070508	      5.14181005	      3.66138016	      3.09468362	      5.14698250	      4.81507529	      2.78935472	      1.94472903	      4.59354550	      6.98522043	      5.23559713	     25.29203027	     15.96011334	      4.53385997	      3.28504576	      5.54646593	     14.12597625	      0.00000000	      0.00000000	      0.00000000	     19.25150169	      8.99112559	     42.74828478	     47.17361811	      4.12784584	      3.59440734	     11.07043613	      5.85546345	     15.76311697	      2.46882051	      7.84715608	      2.51392757	     31.12779593	     31.12779593	     11.42013820	     11.42013820	     28.98137837	     28.98137837	    152.73282237	     98.88673206	      8.96963038	     -5.85816280	      3.54573602	     60.52038045	   -152.73282237	    -98.88673206	     -8.96963038	      2.58305315	     -4.19970787	      2.45722905	      0.00035365	     -0.00001870	     -0.00023344	      0.00009265	     -0.00000536	      0.00014080	     -0.00035365	      0.00001870	      0.00023344	     -0.00000057	      0.00001078	     -0.00000173	   -845.08279985	   -340.34146284	    303.03088218	     -7.58932347	     20.78363615	      2.35663216	    845.08279985	    340.34146284	   -303.03088218	    128.10289636	    -14.78567513	    340.46421062	   -285.94706150	   -125.17892590	    -77.72018769	      4.05588468	     -9.89625851	      1.02804365	    285.94706150	    125.17892590	     77.72018769	    -34.39523827	      7.01051076	    115.24398399	     -2.02798811	      0.00000000	    982.75541774	    625.24592841	     21.45639102	      8.02213616	      0.00000000	      0.00000000	      0.00000000	      0.00000000	      0.00000000	      0.00000000	      0.00000001	      0.00000000
      0.21148396	      9.66001732	      7.11260777	      7.63503984	      3.30590682	      3.88128074	      4.08416546	      0.00000000	    163.80444417	    181.20814260	    335.34394264	    121.91458549	      7.06564670	      5.13835994	      3.65880917	      3.09245586	      5.14294285	      3.35532325	      2.78745254	     92.37650775	      4.59029107	      6.98025844	      5.23181456	     25.28282220	     15.94964164	      4.53072163	      3.28353641	      5.54237283	    109.54690341	     40.21817366	     74.51626895	     56.08129247	      0.00000000	      0.00000000	      0.00000000	      0.00000000	      0.00000000	      0.00000000	     35.82932292	      1.16640375	      2.81759632	     22.39709519	     48.04380922	     11.61133234	      9.66001732	      7.11260777	      7.63503984	      3.30590682	      3.88128074	      4.08416546	     10.61386419	      5.21447571	     10.19840907	      9.01634516	      1.88762558	      7.06564670	      5.13835994	      3.65880917	      3.09245586	      5.14294285	      4.81257506	      2.78745254	      1.94339488	      4.59029107	      6.98025844	      5.23181456	     25.28282220	     15.94964164	      4.53072163	      3.28353641	      5.54237283	     14.11406589	      0.00000000	      0.00000000	      0.00000000	     19.23883775	      8.98486512	     42.71130010	     47.15746741	      4.12004651	      3.58750405	     11.06139537	      5.85032019	     15.75250309	      2.46720456	      7.84338565	      2.51279634	     31.10666547	     31.10666547	     11.41172452	     11.41172452	     28.97379401	     28.97379401	    154.44428296	    100.65762645	      9.06826616	     -5.93925986	      3.58401045	     61.18373136	   -154.44428296	   -100.65762645	     -9.06826616	      2.63011289	     -4.24643041	      2.52816701	      0.00014655	     -0.00000722	     -0.00009623	      0.00003820	     -0.00000222	      0.00005834	     -0.00014655	      0.00000722	      0.00009623	     -0.00000023	      0.00000445	     -0.00000068	   -849.10090131	   -341.46266416	    304.10149265	     -7.58229796	     20.86620587	      2.43629615	    849.10090131	    341.46266416	   -304.10149265	    128.53920145	    -14.84730908	    342.05344441	   -286.72904882	   -125.60996114	    -77.86749938	      4.06205488	     -9.92495570	      1.06486123	    286.72904882	    125.60996114	     77.86749938	    -34.46164642	      7.02937751	    115.54552829	     -2.73605917	      0.00000000	    984.49327252	    625.94356500	     20.16394991	      6.87303750	      0.00000000	      0.00000000	      0.00000000	      0.00000000	      0.00000000	      0.00000000	      0.00000001	      0.00000000
      0.21183985	      9.65018563	      7.10589102	      7.62774047	      3.30291637	      3.87802347	      4.08001029	      0.00000000	    164.03424268	    181.29285941	    335.80941189	    121.95686902	      7.05889558	      5.13375508	      3.65537756	      3.08948263	      5.13755144	      3.35211629	      2.78491373	     92.45812856	      4.58594758	      6.97363600	      5.22676623	     25.27053306	     15.93566638	      4.52653297	      3.28152210	      5.53689657	    115.78972531	     40.44183341	     74.82881795	     56.27469140	      0.00000000	      0.00000000	      0.00000000	      0.00000000	      0.00000000	      0.00000000	     35.83115366	      1.14296801	      2.77900905	     22.30546125	     47.88902657	     11.56882815	      9.65018563	      7.10589102	      7.62774047	      3.30291637	      3.87802347	      4.08001029	     10.61772404	      5.20920237	     10.18695889	      9.00800181	      1.88592604	      7.05889558	      5.13375508	      3.65537756	      3.08948263	      5.13755144	      4.80923816	      2.78491373	      1.94161421	      4.58594758	      6.97363600	      5.22676623	     25.27053306	     15.93566638	      4.52653297	      3.28152210	      5.53689657	     14.09816869	      0.00000000	      0.00000000	      0.00000000	     19.22187386	      8.97648300	     42.66189741	     47.13590596	      4.10962853	      3.57829471	     11.04932805	      5.84345438	     15.73832941	      2.46504793	      7.83832407	      2.51127392	     31.07846283	     31.07846283	     11.40049540	     11.40049540	     28.96367196	     28.96367196	    156.48460591	    101.29253223	      9.74833802	     -6.22943767	      3.63468330	     61.99088736	   -156.48460591	   -101.29253223	     -9.74833802	      2.65368902	     -4.32273930	      2.55801860	      0.00000000	      0.00000000	      0.00000000	      0.00000000	      0.00000000	      0.00000000	      0.00000000	      0.00000000	      0.00000000	      0.00000000	      0.00000000	      0.00000000	   -855.92591426	   -340.80801819	    308.30441059	     -7.58821329	     21.09902398	      2.44318678	    855.92591426	    340.80801819	   -308.30441059	    130.22648330	    -14.98011318	    344.79364658	   -288.42350892	   -125.25744597	    -79.00939725	      4.06054902	    -10.01720741	      1.06718385	    288.42350892	    125.25744597	     79.00939725	    -34.91629524	      7.08088941	    116.22669018	     -2.88667738	      0.00000000	    986.65306233	    626.37370455	     19.32379823	      5.99185694	      0.00000000	      0.00000000	      0.00000000	      0.00000000	      0.00000000	      0.00000000	      0.00000001	      0.00000000
